<svg xmlns="http://www.w3.org/2000/svg" version="1.1" xmlns:xlink="http://www.w3.org/1999/xlink" xmlns:svgjs="http://svgjs.dev/svgjs" width="1500" height="1500" viewBox="0 0 1500 1500"><rect width="" height="" fill="#000000"></rect><g transform="matrix(0.6666666666666666,0,0,0.6666666666666666,249.39393939393938,500.8188384929095)"><svg viewBox="0 0 396 197" data-background-color="#ffffff" preserveAspectRatio="xMidYMid meet" height="746" width="1500" xmlns="http://www.w3.org/2000/svg" xmlns:xlink="http://www.w3.org/1999/xlink"><g id="tight-bounds" transform="matrix(1,0,0,1,0.2400000000000091,0.20379788920271835)"><svg viewBox="0 0 395.52 196.59240422159456" height="196.59240422159456" width="395.52"><g><svg viewBox="0 0 497.33632582158646 247.2" height="196.59240422159456" width="395.52"><g><svg viewBox="0 0 271.30923276983094 247.2" height="247.2" width="271.30923276983094"><g id="textblocktransform"><svg viewBox="0 0 271.30923276983094 247.2" height="247.2" width="271.30923276983094" id="textblock"><g><svg viewBox="0 0 271.30923276983094 247.2" height="247.2" width="271.30923276983094"><g transform="matrix(1,0,0,1,0,0)"><svg width="271.30923276983094" viewBox="-0.5 -32.05 42.2 38.449999999999996" height="247.2" data-palette-color="#0a0d0c"><path d="M40.2 6.4L40.2 6.4Q38.85 6.4 36.7 5.58 34.55 4.75 32 3.43 29.45 2.1 26.93 0.65 24.4-0.8 22.3-2.1 20.2-3.4 19-4.2L19-4.2Q18.45-3 17.5-1.25 16.55 0.5 15.33 2.2 14.1 3.9 12.68 5.05 11.25 6.2 9.65 6.2L9.65 6.2Q8.05 6.2 6.73 4.95 5.4 3.7 4.38 1.75 3.35-0.2 2.65-2.43 1.95-4.65 1.6-6.65 1.25-8.65 1.25-9.95L1.25-9.95Q1.25-10.15 1.28-10.63 1.3-11.1 1.45-11.53 1.6-11.95 1.9-11.95L1.9-11.95Q2.25-11.95 2.25-11.53 2.25-11.1 2.25-10.85L2.25-10.85Q2.25-9.5 2.5-7.78 2.75-6.05 3.2-4.38 3.65-2.7 4.2-1.45L4.2-1.45Q4.65-0.5 5.4 0.85 6.15 2.2 7.2 3.25 8.25 4.3 9.5 4.3L9.5 4.3Q10.75 4.3 11.93 3.15 13.1 2 14.08 0.33 15.05-1.35 15.78-2.98 16.5-4.6 16.9-5.55L16.9-5.55Q16.1-6.05 14.68-6.93 13.25-7.8 11.58-8.8 9.9-9.8 8.2-10.7 6.5-11.6 5.05-12.18 3.6-12.75 2.7-12.75L2.7-12.75Q1.45-12.75 0.9-11.95 0.35-11.15 0.35-9.95L0.35-9.95Q0.35-9.25 0.55-8.55 0.75-7.85 0.75-7.15L0.75-7.15Q0.75-7.05 0.7-6.7 0.65-6.35 0.4-6.35L0.4-6.35Q0.15-6.35-0.08-7.03-0.3-7.7-0.4-8.45-0.5-9.2-0.5-9.45L-0.5-9.45Q-0.5-10.8-0.08-12.03 0.35-13.25 1.3-14.05 2.25-14.85 3.7-14.85L3.7-14.85Q5.15-14.85 7.05-14.03 8.95-13.2 10.95-11.98 12.95-10.75 14.7-9.5 16.45-8.25 17.65-7.4L17.65-7.4Q18.3-9 19.25-11.43 20.2-13.85 21.45-16.63 22.7-19.4 24.2-22.13 25.7-24.85 27.45-27.1 29.2-29.35 31.15-30.7 33.1-32.05 35.2-32.05L35.2-32.05Q36.5-32.05 37.3-31.38 38.1-30.7 38.5-29.55L38.5-29.55Q38.55-29.4 38.58-29.25 38.6-29.1 38.6-28.95L38.6-28.95Q38.6-28.15 38.18-27.33 37.75-26.5 37.2-25.95L37.2-25.95Q37.15-25.9 36.95-25.73 36.75-25.55 36.65-25.55L36.65-25.55Q36.5-25.55 36.5-25.75L36.5-25.75Q36.5-26.15 36.65-26.53 36.8-26.9 36.8-27.3L36.8-27.3Q36.8-28.6 36-29.68 35.2-30.75 33.8-30.75L33.8-30.75Q33.45-30.75 33.08-30.65 32.7-30.55 32.35-30.4L32.35-30.4Q31.2-29.85 30.05-28.35 28.9-26.85 27.83-24.83 26.75-22.8 25.8-20.68 24.85-18.55 24.1-16.7 23.35-14.85 22.9-13.7L22.9-13.7Q22.1-11.75 21.35-9.8 20.6-7.85 19.75-5.9L19.75-5.9Q22.2-4.15 25.23-2.05 28.25 0.05 31.45 1.78 34.65 3.5 37.6 4.2L37.6 4.2Q38.2 4.35 38.85 4.35L38.85 4.35Q39.35 4.35 39.68 4.15 40 3.95 40 3.4L40 3.4Q40 2.8 39.7 2.1 39.4 1.4 39.08 0.83 38.75 0.25 38.75 0.15L38.75 0.15Q38.75-0.05 38.9-0.05L38.9-0.05Q39.15-0.05 39.6 0.58 40.05 1.2 40.55 2.1 41.05 3 41.38 3.85 41.7 4.7 41.7 5.15L41.7 5.15Q41.7 5.8 41.28 6.1 40.85 6.4 40.2 6.4Z" opacity="1" transform="matrix(1,0,0,1,0,0)" fill="#ffffff" class="wordmark-text-0" data-fill-palette-color="primary" id="text-0"></path></svg></g></svg></g></svg></g></svg></g><g transform="matrix(1,0,0,1,329.66721996983097,39.765447074122235)"><svg viewBox="0 0 167.66910585175552 167.66910585175552" height="167.66910585175552" width="167.66910585175552"><g data-palette-color="#000000"><rect width="45.82955559947984" height="167.66910585175552" fill="#ffffff" stroke="transparent" data-fill-palette-color="accent" x="0" fill-opacity="1"></rect><rect width="45.82955559947984" height="167.66910585175552" fill="#ffffff" stroke="transparent" data-fill-palette-color="accent" x="55.88970195058517" fill-opacity="0.75"></rect><rect width="45.82955559947984" height="167.66910585175552" fill="#ffffff" stroke="transparent" data-fill-palette-color="accent" x="111.77940390117034" fill-opacity="0.5"></rect></g></svg></g></svg></g><defs></defs></svg><rect width="395.52" height="196.59240422159456" fill="none" stroke="none" visibility="hidden"></rect></g></svg></g></svg>